# xmcd
#
# Track frame offsets:
#	150
#	13622
#	30470
#	46952
#	65160
#	82580
#	95004
#	107272
#	119142
#	132765
#	146460
#	160660
#	172725
#	184384
#	195872
#	207320
#	220820
#	234232
#	246662
#	260072
#
# Disc length: 3632 seconds
#
# Revision: 0
# Processed by: cddbd v1.4PL0 Copyright (c) Steve Scherf et al.
# Submitted via: dBpowerAMP V4.0
#
DISCID=110e2e14
DTITLE=Albert Ammons - Blues and Boogie Woogie King 193
DYEAR=1998
DGENRE=Boogie Woogie
TTITLE0=Boogie Woogie Stomp
TTITLE1=Boogie Woogie Blues
TTITLE2=Boogie Woogie Stomp (Solo)
TTITLE3=Chicago In Mind
TTITLE4=Suitcase Blues
TTITLE5=Boogie Woogie Man
TTITLE6=Sixth Avenue Express
TTITLE7=Pine Creek
TTITLE8=Albert'S Special Boogie
TTITLE9=The Boogie Rocks
TTITLE10=Blues In The Groove
TTITLE11=Rock Of Gibraltar
TTITLE12=Oh! Lady Be Good
TTITLE13=Swanee River Boogie
TTITLE14=Red Sails In The Sunset
TTITLE15=Deep In The Heart Of Texas Boogie
TTITLE16=Sweet Patootie Booge
TTITLE17=12th Street Rag
TTITLE18=St. Louis Blues
TTITLE19=Hiroshima
EXTD=Submitted by William Hale
EXTT0=
EXTT1=
EXTT2=
EXTT3=
EXTT4=
EXTT5=
EXTT6=
EXTT7=
EXTT8=
EXTT9=
EXTT10=
EXTT11=
EXTT12=
EXTT13=
EXTT14=
EXTT15=
EXTT16=
EXTT17=
EXTT18=
EXTT19=
PLAYORDER=
